{"title":"Hot.Pursuit.2015.BRRip.480p.x264.AAC-VYTO [P2PDL]","uid":12168286,"size":322791060,"categoryP":"video","categoryS":"movies","magnet":"?xt=urn:btih:b36e530d5d8f64716d5e1bdb99797a1c2fdf31a4&amp;dn=Hot.Pursuit.2015.BRRip.480p.x264.AAC-VYTO+%5BP2PDL%5D&amp;tr=udp%3A%2F%2Ftracker.openbittorrent.com%3A80&amp;tr=udp%3A%2F%2Fopen.demonii.com%3A1337&amp;tr=udp%3A%2F%2Ftracker.coppersurfer.tk%3A6969&amp;tr=udp%3A%2F%2Fexodus.desync.com%3A6969","seeders":7,"leechers":0,"uploader":"ValidusVyto","files":7,"time":1438088838,"description":"____    ____ ____    ____ .___________.  ______   \n     /   /      /   / |           | /  __    \n    /   /      /   /  `---|  |----`|  |  |  | \n        /     _    _/       |  |     |  |  |  | \n       /        |  |         |  |     |  `--'  | \n    __/         |__|         |__|      ______/  \n                                                  \nPresenting Small Encodes with quality for years!\n                                                                                                   \n                                                                                                   \n\nHot.Pursuit.2015.BRRip.480p.x264.AAC-VYTO\n\n\nGenre: Action, Comedy, Crime  &lt;a href=&quot;\nhttp://www.imdb.com/title/tt2967224/&quot; rel=&quot;nofollow&quot; target=&quot;_NEW&quot;&gt;\nhttp://www.imdb.com/title/tt2967224/&lt;/a&gt;\n\n\nGeneral\nFormat                         : MPEG-4\nFile size                      : 300 MiB\nDuration                       : 1h 27mn\nOverall bit rate               : 480 Kbps\n\nVideo\nFormat                         : AVC\nBit rate                       : 445 Kbps\nWidth                          : 720 pixels\nHeight                         : 304 pixels\nDisplay aspect ratio           : 2.35:1\nFrame rate mode                : Constant\nFrame rate                     : 23.976 fps\nBit depth                      : 8 bits\nStream size                    : 278 MiB (93%)\nWriting library                : x264 core 146 r2538 121396c\n\nAudio\nFormat                         : AAC\nBit rate mode                  : Variable\nBit rate                       : 32.0 Kbps\nChannel(s)                     : 2 channels\nChannel positions              : Front: L R\nSampling rate                  : 48.0 KHz\nStream size                    : 20.0 MiB (7%)\nLanguage                       : English\n\nSubtitle                       : Yes (English)\nSource                         : 720p.BluRay.x264-GECKOS\n\n\nScreenshots:\n &lt;a href=&quot;\nhttp://ititli.com/rS&quot; rel=&quot;nofollow&quot; target=&quot;_NEW&quot;&gt;\nhttp://ititli.com/rS&lt;/a&gt; &lt;a href=&quot;\nhttp://ititli.com/rZ&quot; rel=&quot;nofollow&quot; target=&quot;_NEW&quot;&gt;\nhttp://ititli.com/rZ&lt;/a&gt; &lt;a href=&quot;\nhttp://ititli.com/rc&quot; rel=&quot;nofollow&quot; target=&quot;_NEW&quot;&gt;\nhttp://ititli.com/rc&lt;/a&gt; &lt;a href=&quot;\nhttp://ititli.com/ri&quot; rel=&quot;nofollow&quot; target=&quot;_NEW&quot;&gt;\nhttp://ititli.com/ri&lt;/a&gt; &lt;a href=&quot;\nhttp://ititli.com/rp&quot; rel=&quot;nofollow&quot; target=&quot;_NEW&quot;&gt;\nhttp://ititli.com/rp&lt;/a&gt; &lt;a href=&quot;\nhttp://ititli.com/rD&quot; rel=&quot;nofollow&quot; target=&quot;_NEW&quot;&gt;\nhttp://ititli.com/rD&lt;/a&gt; &lt;a href=&quot;\nhttp://ititli.com/ra&quot; rel=&quot;nofollow&quot; target=&quot;_NEW&quot;&gt;\nhttp://ititli.com/ra&lt;/a&gt; &lt;a href=&quot;\nhttp://ititli.com/rb&quot; rel=&quot;nofollow&quot; target=&quot;_NEW&quot;&gt;\nhttp://ititli.com/rb&lt;/a&gt; &lt;a href=&quot;\nhttp://ititli.com/rz&quot; rel=&quot;nofollow&quot; target=&quot;_NEW&quot;&gt;\nhttp://ititli.com/rz&lt;/a&gt;\n\n----------------------------------------------------------------------------------------------------\n\n\nEncoder Notes: Looking For Early Access To Anything You Can Provide DVDScr, R5, DVDR, BluRay, Direct\nAudio, Music Releases and Seedboxes. If You Got anything to offer please contact us.\n\nSupport us by donating BC - 1FgwdzPsd1y25Gea8wP1qni35uGCtmkRCD","torrent":{"xt":"urn:btih:b36e530d5d8f64716d5e1bdb99797a1c2fdf31a4","amp;dn":"Hot.Pursuit.2015.BRRip.480p.x264.AAC-VYTO+%5BP2PDL%5D","amp;tr":["udp%3A%2F%2Ftracker.openbittorrent.com%3A80","udp%3A%2F%2Fopen.demonii.com%3A1337","udp%3A%2F%2Ftracker.coppersurfer.tk%3A6969","udp%3A%2F%2Fexodus.desync.com%3A6969"],"infoHash":"b36e530d5d8f64716d5e1bdb99797a1c2fdf31a4","infoHashBuffer":{"type":"Buffer","data":[179,110,83,13,93,143,100,113,109,94,27,219,153,121,122,28,47,223,49,164]},"announce":[],"urlList":[]}}